#!OML:ASF H:\Terrain\Patient Classification 1\PLAYGROUND\JustinFriday\JustinFriday.ASF
:FULLY-SPECIFIED
:DEGREES
1170
root 12.2367 18.552 23.3706 178.775 6.85229 -177.677
lowerback 20.0529 -0.199849 1.08465
upperback -2.97509 0.309285 1.74331
thorax -14.7486 0.171094 1.25943
lowerneck -3.75254 -2.67424 -8.07419
upperneck 8.51824 -3.50453 7.21096
head 3.41394 -1.63453 3.36928
rclavicle 1.14705e-014 -1.59028e-015
rhumerus 100.313 -24.4736 -36.6603
rradius 26.2479
rwrist -11.6267
rhand -42.722 -17.0347
rfingers 7.12502
rthumb -15.5907 -406.426
lclavicle 1.14705e-014 -1.59028e-015
lhumerus 98.5209 31.7013 38.6868
lradius 16.6813
lwrist -16.8194
lhand -30.6885 -10.1477
lfingers 7.12502
lthumb -3.98236 19.7948
rfemur -25.0172 -9.58008 27.7706
rtibia 37.8006
rfoot 8.31931 -5.84143
rtoes 14.3167
lfemur -8.78558 -1.51507 -13.2147
ltibia 42.0916
lfoot 6.71046 9.99883
ltoes -23.763
1171
root 12.2504 18.5409 23.3314 178.694 7.12609 -177.261
lowerback 20.0726 -0.0443145 1.55853
upperback -2.96803 0.620683 1.62632
thorax -14.7504 0.264741 0.754941
lowerneck -4.3742 -2.66076 -7.62604
upperneck 8.71785 -3.49689 7.32377
head 3.57024 -1.59951 3.32465
rclavicle 1.63066e-014 7.35503e-015
rhumerus 99.7686 -24.8943 -36.3993
rradius 26.2814
rwrist -11.8673
rhand -42.7805 -17.1123
rfingers 7.12502
rthumb -15.6469 -406.5
lclavicle 1.63066e-014 7.35503e-015
lhumerus 99.6232 31.015 40.0398
lradius 16.7904
lwrist -17.9082
lhand -30.5176 -10.2725
lfingers 7.12502
lthumb -3.81731 19.6731
rfemur -24.6185 -9.71525 28.3075
rtibia 37.6378
rfoot 8.38467 -5.23201
rtoes 14.5795
lfemur -8.84803 -1.59628 -12.7154
ltibia 42.7202
lfoot 7.14128 9.61574
ltoes -25.7602
1172
root 12.2622 18.5329 23.291 178.622 7.42587 -176.62
lowerback 20.2139 -0.0446775 2.19978
upperback -3.17395 0.797173 1.63092
thorax -15.0751 0.288102 0.339662
lowerneck -3.8921 -2.76758 -7.28616
upperneck 8.97213 -3.66889 7.17106
head 3.57093 -1.67769 3.21939
rclavicle 6.68219e-015 1.63003e-014
rhumerus 99.5603 -24.5758 -36.7865
rradius 26.1223
rwrist -11.5225
rhand -42.5931 -17.0815
rfingers 7.12502
rthumb -15.4664 -406.483
lclavicle 6.68219e-015 1.63003e-014
lhumerus 99.9078 30.3225 40.7439
lradius 16.9915
lwrist -18.8569
lhand -30.2788 -10.3658
lfingers 7.12502
lthumb -3.58672 19.5837
rfemur -24.1266 -10.0072 29.101
rtibia 37.4544
rfoot 8.27997 -4.39797
rtoes 15.0169
lfemur -8.99343 -1.76344 -11.9798
ltibia 43.4797
lfoot 7.66432 9.2021
ltoes -27.3457
1173
root 12.2765 18.5327 23.2482 178.539 7.71992 -176.484
lowerback 20.2345 -0.00766484 2.28612
upperback -3.33982 0.855484 1.53861
thorax -15.2831 0.296559 0.168246
lowerneck -3.01439 -2.79236 -6.7254
upperneck 8.54255 -3.73231 6.76384
head 3.28338 -1.7228 3.00949
rclavicle -1.92161e-014 -1.37161e-014
rhumerus 99.9013 -23.9962 -38.0141
rradius 25.7961
rwrist -10.4127
rhand -42.2389 -16.8993
rfingers 7.12502
rthumb -15.1253 -406.327
lclavicle -1.92161e-014 -1.37161e-014
lhumerus 99.8728 29.8936 41.0821
lradius 17.3685
lwrist -19.5123
lhand -30.0016 -10.3939
lfingers 7.12502
lthumb -3.31905 19.56
rfemur -23.7017 -10.2719 29.3513
rtibia 37.2929
rfoot 8.3547 -3.29993
rtoes 14.7664
lfemur -9.16653 -2.14443 -11.8163
ltibia 44.3191
lfoot 8.1489 9.10182
ltoes -27.293
1174
root 12.2937 18.5336 23.2013 178.435 7.90446 -176.713
lowerback 19.8762 -0.0222627 1.9757
upperback -2.60243 0.731634 1.52142
thorax -14.194 0.280678 0.35683
lowerneck -5.919 -2.89922 -6.75322
upperneck 9.19368 -3.77583 6.61393
head 3.96397 -1.7212 2.93007
rclavicle -3.34082e-014 2.8128e-014
rhumerus 101.684 -24.5444 -39.6828
rradius 25.6437
rwrist -9.47401
rhand -42.1333 -16.6603
rfingers 7.12502
rthumb -15.0236 -406.095
lclavicle -3.34082e-014 2.8128e-014
lhumerus 100.799 31.064 41.9437
lradius 17.7317
lwrist -20.059
lhand -29.8123 -10.3835
lfingers 7.12502
lthumb -3.13619 19.5732
rfemur -23.3001 -10.2735 29.1793
rtibia 37.1775
rfoot 8.60016 -2.21371
rtoes 14.8216
lfemur -9.46336 -2.47352 -12.0031
ltibia 45.2272
lfoot 8.63895 8.846
ltoes -26.8691
1175
root 12.309 18.5342 23.1534 178.362 8.08473 -176.831
lowerback 19.8066 0.0343786 1.78235
upperback -2.64008 0.748565 1.48535
thorax -14.1981 0.300243 0.421687
lowerneck -6.09593 -2.92494 -6.86594
upperneck 9.54323 -3.80256 6.6934
head 4.105 -1.72647 2.97015
rclavicle -1.42566e-015 1.78906e-015
rhumerus 101.866 -24.425 -40.0087
rradius 25.6745
rwrist -9.45083
rhand -42.2452 -16.5127
rfingers 7.12502
rthumb -15.1314 -405.94
lclavicle -1.42566e-015 1.78906e-015
lhumerus 100.534 31.3434 41.4113
lradius 17.7291
lwrist -19.6536
lhand -29.686 -10.452
lfingers 7.12502
lthumb -3.01421 19.5064
rfemur -22.9055 -10.2216 29.1183
rtibia 37.0764
rfoot 8.77433 -1.13871
rtoes 16.5606
lfemur -9.96901 -2.68688 -12.034
ltibia 46.2638
lfoot 9.21818 8.4908
ltoes -26.6047
1176
root 12.3232 18.5376 23.0989 178.249 8.39746 -176.676
lowerback 19.9361 0.122429 1.83904
upperback -2.90316 0.884886 1.48029
thorax -14.5853 0.35203 0.343158
lowerneck -5.46674 -2.91552 -6.87143
upperneck 9.6073 -3.81832 6.79035
head 4.02209 -1.73192 3.008
rclavicle -3.70586e-015 1.0138e-014
rhumerus 101.736 -23.9219 -40.3617
rradius 25.5981
rwrist -9.13222
rhand -42.1997 -16.4291
rfingers 7.12502
rthumb -15.0876 -405.859
lclavicle -3.70586e-015 1.0138e-014
lhumerus 100.163 31.0572 41.0482
lradius 17.6962
lwrist -19.5711
lhand -29.5588 -10.5725
lfingers 7.12502
lthumb -2.8914 19.3876
rfemur -22.3773 -10.2045 29.3428
rtibia 36.8458
rfoot 9.06833 -0.154129
rtoes 20.084
lfemur -10.4631 -2.84352 -11.7629
ltibia 47.5394
lfoot 10.4084 7.40992
ltoes -27.6773
1177
root 12.3401 18.5387 23.038 178.093 8.63611 -176.324
lowerback 20.055 0.0101633 1.88509
upperback -2.82955 0.808566 1.79929
thorax -14.5757 0.338197 0.701725
lowerneck -6.13291 -2.77509 -7.52474
upperneck 9.81523 -3.56357 6.9611
head 4.1934 -1.61525 3.17611
rclavicle 8.75778e-015 1.92821e-014
rhumerus 102.604 -23.3349 -41.1695
rradius 25.5113
rwrist -8.18229
rhand -41.7748 -16.6514
rfingers 7.12502
rthumb -14.6782 -406.112
lclavicle 8.75778e-015 1.92821e-014
lhumerus 99.8293 31.4507 41.1982
lradius 17.737
lwrist -20.0085
lhand -29.4523 -10.6429
lfingers 7.12502
lthumb -2.78852 19.3186
rfemur -21.6801 -9.88963 29.7365
rtibia 36.4133
rfoot 9.46342 0.537531
rtoes 21.8254
lfemur -11.0361 -2.97509 -11.2245
ltibia 49.1102
lfoot 11.3757 6.47597
ltoes -26.8568
1178
root 12.3595 18.5376 22.9781 177.986 8.71453 -175.925
lowerback 20.2994 -0.119819 1.90313
upperback -3.22008 0.724288 2.1703
thorax -15.1963 0.322406 1.14878
lowerneck -5.08072 -2.54103 -8.18123
upperneck 9.64781 -3.23999 7.00686
head 3.95404 -1.49052 3.32687
rclavicle 1.22253e-014 -2.64384e-014
rhumerus 102.631 -22.2919 -41.3078
rradius 25.425
rwrist -7.19114
rhand -41.0761 -17.134
rfingers 7.12502
rthumb -14.005 -406.642
lclavicle 1.22253e-014 -2.64384e-014
lhumerus 98.5994 31.4167 40.4333
lradius 17.6843
lwrist -19.8065
lhand -29.3267 -10.7117
lfingers 7.12502
lthumb -2.66726 19.2513
rfemur -20.9323 -9.07062 30.1537
rtibia 35.902
rfoot 9.60891 0.554425
rtoes 22.5958
lfemur -11.928 -3.19075 -10.5762
ltibia 50.9305
lfoot 12.4301 5.61219
ltoes -23.5961
1179
root 12.3778 18.5408 22.9148 177.945 8.78855 -175.628
lowerback 20.4515 -0.212541 1.89387
upperback -3.66573 0.681607 2.50452
thorax -15.8338 0.330376 1.56258
lowerneck -4.09196 -2.36412 -8.82661
upperneck 9.64495 -2.99156 6.91869
head 3.77813 -1.40368 3.42788
rclavicle -2.68421e-014 1.31198e-014
rhumerus 102.48 -21.3155 -41.2818
rradius 25.4583
rwrist -6.47799
rhand -40.4615 -17.493
rfingers 7.12502
rthumb -13.4127 -407.041
lclavicle -2.68421e-014 1.31198e-014
lhumerus 97.4146 31.2781 39.8765
lradius 17.7294
lwrist -19.6763
lhand -29.1223 -10.8011
lfingers 7.12502
lthumb -2.46978 19.1644
rfemur -20.1779 -7.95829 30.4472
rtibia 35.3815
rfoot 9.39138 -0.30879
rtoes 24.9046
lfemur -13.0337 -3.38169 -10.0434
ltibia 52.9308
lfoot 13.8888 4.48522
ltoes -18.9791
